Coordinates
version=1
nRows=14
nColumns=40
inDegrees=yes

Units are S.I. units (second, meters, Newtons, ...)
Angles are in degrees.

endheader
time	pelvis_tilt	pelvis_list	pelvis_rotation	pelvis_tx	pelvis_ty	pelvis_tz	hip_flexion_r	hip_adduction_r	hip_rotation_r	knee_angle_r	knee_angle_r_beta	ankle_angle_r	subtalar_angle_r	mtp_angle_r	hip_flexion_l	hip_adduction_l	hip_rotation_l	knee_angle_l	knee_angle_l_beta	ankle_angle_l	subtalar_angle_l	mtp_angle_l	lumbar_extension	lumbar_bending	lumbar_rotation	arm_flex_r	arm_add_r	arm_rot_r	elbow_flex_r	pro_sup_r	wrist_flex_r	wrist_dev_r	arm_flex_l	arm_add_l	arm_rot_l	elbow_flex_l	pro_sup_l	wrist_flex_l	wrist_dev_l
     34.78314286	     -4.59530912	     -3.02158241	     11.46721194	      0.87883808	      0.91958717	      0.51338612	      5.64064920	      3.14165673	    -13.96407966	     19.04221732	     19.04221732	     19.36851009	     -8.35770940	     -0.35401163	     27.73140692	     -6.30377273	      3.68895651	     17.88998382	     17.88998382	      6.38882811	      0.35951735	      1.75207619	     -7.23538830	      2.12921353	      1.86838847	     59.37549095	    -17.85376253	     -5.15791002	     76.02312896	     44.93092433	      0.00000000	      0.00000000	    -13.34044258	     -8.53354867	     22.53031833	     21.34987858	     42.72552754	      0.00000000	      0.00000000
     34.80628571	     -4.52453027	     -3.07584313	     11.26345696	      0.88045413	      0.91898840	      0.51019504	      4.94744480	      3.01112054	    -14.25042184	     18.79979741	     18.79979741	     19.72393572	     -7.29713464	     -0.31475516	     27.34143405	     -6.24185446	      3.86770841	     18.06121611	     18.06121611	      3.85702863	     -1.42212096	     -3.26781331	     -7.32715568	      2.10391565	      2.10861765	     59.73298174	    -17.92266140	     -4.88097773	     77.98113816	     44.89550770	      0.00000000	      0.00000000	    -12.72752135	     -8.73138852	     22.95591837	     21.20641418	     42.81628489	      0.00000000	      0.00000000
     34.82942857	     -4.49033644	     -3.13478785	     11.08222470	      0.88221550	      0.91855188	      0.50686362	      4.34653631	      2.94867515	    -14.12141834	     18.62256091	     18.62256091	     19.88514732	     -7.13644685	     -0.30638262	     27.25497948	     -6.21345080	      3.82475523	     18.90674603	     18.90674603	      3.45535704	     -2.12851480	     -3.34081275	     -7.25508614	      2.05149086	      2.14617443	     60.08058045	    -17.70569256	     -4.82091444	     78.16536507	     44.89261724	      0.00000000	      0.00000000	    -12.32947472	     -8.92295359	     22.97366822	     21.25988867	     42.83594592	      0.00000000	      0.00000000
     34.85257143	     -4.50716896	     -3.13252850	     10.83097650	      0.88414019	      0.91827532	      0.50339524	      3.79281995	      2.78294326	    -13.95810331	     18.47293692	     18.47293692	     19.99663572	     -6.92997616	     -0.30182548	     27.12658759	     -6.12560933	      3.73481910	     19.65216917	     19.65216917	      3.13572945	     -2.75529111	     -3.33576038	     -7.13342482	      1.90649568	      2.22300822	     60.21835697	    -17.44359423	     -4.71268283	     78.28696753	     44.88713161	      0.00000000	      0.00000000	    -11.82992636	     -9.16552314	     22.95551905	     21.35176405	     42.85529210	      0.00000000	      0.00000000
     34.87571429	     -4.39319464	     -3.29099361	     10.64998597	      0.88621897	      0.91814132	      0.49950356	      3.02472668	      2.76489008	    -14.09842681	     18.15840166	     18.15840166	     20.08518443	     -6.26428000	     -0.27979488	     27.03903869	     -6.00969240	      4.46904723	     20.68228407	     20.68228407	      2.97279993	     -4.46249029	     -3.18062716	     -7.13026398	      2.06242330	      2.29583469	     60.36651844	    -17.41658957	     -4.61827902	     78.52869947	     44.88416861	      0.00000000	      0.00000000	    -11.42918214	     -9.27563785	     22.97064135	     21.45751417	     42.89070968	      0.00000000	      0.00000000
     34.89885714	     -4.32664288	     -3.25038611	     10.36666170	      0.88833618	      0.91828353	      0.49545123	      2.34436153	      2.46438945	    -14.20663611	     18.00411219	     18.00411219	     20.17326981	     -5.52507826	     -0.27923795	     26.78900215	     -5.68701325	      5.04694329	     21.45513060	     21.45513060	      2.99415445	     -6.10278574	     -2.62908342	     -7.11656884	      1.96815009	      2.47529939	     60.27775635	    -17.45128960	     -4.46932702	     78.64371752	     44.88873207	      0.00000000	      0.00000000	    -10.95463312	     -9.44927566	     22.97091575	     21.59854322	     42.95503124	      0.00000000	      0.00000000
     34.92200000	     -4.28628360	     -3.24294445	      9.99735346	      0.89050396	      0.91848228	      0.49143274	      1.73818927	      2.21777518	    -14.01443251	     17.88386644	     17.88386644	     20.12277761	     -5.18783247	     -0.24480005	     26.60502501	     -5.52712199	      5.08378531	     22.28558296	     22.28558296	      3.22148925	     -6.85169163	     -2.59754267	     -7.08959831	      1.94713198	      2.62652323	     60.14877370	    -17.28960025	     -4.37909217	     78.57581526	     44.88993974	      0.00000000	      0.00000000	    -10.52101734	     -9.60844603	     22.94112703	     21.71778165	     42.97890759	      0.00000000	      0.00000000
     34.94514286	     -4.24400239	     -3.35343335	      9.67272357	      0.89255045	      0.91879922	      0.48723365	      1.03958180	      2.05325456	    -14.19298830	     17.54597353	     17.54597353	     20.00806398	     -4.28024815	     -0.25993120	     26.46371019	     -5.31812751	      5.71670838	     23.15314463	     23.15314463	      3.69600358	     -8.32713670	     -1.74252241	     -7.05230110	      2.03495617	      2.90889237	     60.06560932	    -17.37938203	     -4.32360072	     78.27325797	     44.90631863	      0.00000000	      0.00000000	     -9.98234474	     -9.73374156	     22.87567572	     21.95750496	     43.03571588	      0.00000000	      0.00000000
     34.96828571	     -4.27681285	     -3.28272507	      9.28497324	      0.89445808	      0.91917030	      0.48287974	      0.54671320	      1.60162462	    -14.35107477	     17.50052708	     17.50052708	     19.92943593	     -3.36492112	     -0.50503193	     26.36817955	     -4.96969144	      5.93893476	     24.08697976	     24.08697976	      5.04236624	     -9.04629432	      0.71235302	     -6.99562764	      1.95609773	      2.96076598	     59.89670704	    -17.19274522	     -4.15615751	     77.76504344	     44.95122532	      0.00000000	      0.00000000	     -9.65727991	     -9.84228933	     22.68960361	     22.18802655	     43.22384495	      0.00000000	      0.00000000
     34.99142857	     -4.27943584	     -3.33140767	      8.86377488	      0.89632359	      0.91960459	      0.47859447	     -0.01757984	      1.33863174	    -14.29453746	     17.28795368	     17.28795368	     19.73346062	     -2.73333673	     -0.53807017	     26.14980965	     -4.79564752	      6.04137519	     24.73702232	     24.73702232	      5.62703130	     -9.85517462	      1.01511482	     -6.98039214	      2.03631344	      3.26114988	     59.64663944	    -17.22826302	     -4.17643107	     77.26412663	     44.97547752	      0.00000000	      0.00000000	     -9.16799101	     -9.98627916	     22.57972595	     22.40391706	     43.28736284	      0.00000000	      0.00000000
     35.01457143	     -4.32214523	     -3.33616088	      8.40375157	      0.89795692	      0.91997871	      0.47429619	     -0.43818764	      0.99884495	    -14.11787882	     17.23810014	     17.23810014	     19.55307202	     -2.27375987	     -0.56047812	     25.95254384	     -4.61301296	      5.93260325	     25.33428437	     25.33428437	      6.15360003	    -10.48383427	      1.04395769	     -7.00979780	      2.09553994	      3.41968607	     59.23864218	    -17.10198887	     -4.12675838	     76.89854753	     44.98663380	      0.00000000	      0.00000000	     -8.73584528	    -10.11744737	     22.51554972	     22.56046257	     43.31782294	      0.00000000	      0.00000000
     35.03771429	     -4.45566342	     -3.38170823	      7.96265040	      0.89939261	      0.92030725	      0.47000633	     -0.71133020	      0.68830440	    -13.92550286	     17.22979080	     17.22979080	     19.31853632	     -1.90637949	     -0.54959811	     25.73692702	     -4.46596252	      5.79623497	     25.66903164	     25.66903164	      6.69017871	    -10.93580897	      0.98191847	     -6.92447772	      2.19184030	      3.48819694	     58.85934632	    -16.96496432	     -4.07108169	     76.61213754	     44.99354551	      0.00000000	      0.00000000	     -8.25911979	    -10.23313932	     22.46741384	     22.72140178	     43.33936052	      0.00000000	      0.00000000
     35.06085714	     -4.56307381	     -3.30333809	      7.55409813	      0.90062878	      0.92064710	      0.46533775	     -1.05851002	      0.06073526	    -14.61477859	     17.20473553	     17.20473553	     19.04002266	     -0.21106361	     -1.53318429	     25.58165316	     -4.07996891	      5.86070447	     26.26196911	     26.26196911	      7.94042988	    -11.56767346	      3.14104353	     -6.84801155	      2.20326735	      3.56065513	     58.69632971	    -16.76528269	     -4.36183485	     74.60494821	     45.08733878	      0.00000000	      0.00000000	     -7.86580250	    -10.38346236	     22.02664897	     23.10614689	     43.51940984	      0.00000000	      0.00000000
     35.08400000	     -4.69896085	     -3.35490897	      7.09211418	      0.90166894	      0.92100627	      0.46101755	     -1.27368779	     -0.26011567	    -14.39054329	     17.21030427	     17.21030427	     18.75048805	      0.11645755	     -1.55177297	     25.37132491	     -3.97225316	      5.55204737	     26.54846964	     26.54846964	      8.39291313	    -11.88073117	      3.12861762	     -6.86215053	      2.34495742	      3.66540983	     57.99416991	    -16.76188820	     -4.34889200	     74.05964172	     45.10376493	      0.00000000	      0.00000000	     -7.32367655	    -10.52998477	     21.92230010	     23.33205105	     43.55667951	      0.00000000	      0.00000000
